<svg xmlns="http://www.w3.org/2000/svg" viewBox="0 0 415 415">
  <rect width="415" height="415" rx="84" fill="#FDF8F2"/>
  <g transform="translate(-89,-83)">
    <g transform="translate(0,1320) scale(0.1,-0.1)">
      <path fill="#403B38" d="M1570 10106 l0 -1636 1165 0 c1165 0 1165 0 1165 23 0 183 -140 371 -322 431 -99 33 -163 36 -840 36 -535 0 -678 3 -679 13 0 6 -1 518 -1 1137 0 619 -4 1157 -8 1196 -25 218 -212 405 -432 431 -48 6 -48 6 -48 -1631z"/>
      <path fill="#CC7353" d="M3253 11893 c3 -155 8 -228 18 -253 25 -62 69 -130 97 -147 15 -10 114 -87 221 -173 106 -85 218 -174 248 -197 31 -23 62 -51 69 -61 11 -16 14 -194 17 -938 3 -1006 -1 -940 62 -1065 33 -65 97 -152 126 -173 12 -8 66 -57 121 -108 128 -119 125 -117 131 -65 8 59 9 2243 1 2403 -7 132 -7 132 -112 215 -59 46 -140 111 -182 144 -41 33 -113 89 -160 124 -47 36 -123 97 -170 136 -47 39 -128 103 -180 143 -52 39 -140 108 -195 151 -55 44 -104 80 -108 80 -5 1 -7 -97 -4 -216z"/>
    </g>
    <path fill="#DCA15F" d="M 295.20 231.30 L 306.63 268.87 L 344.20 280.30 L 306.63 291.73 L 295.20 329.30 L 283.77 291.73 L 246.20 280.30 L 283.77 268.87 Z"/>
  </g>
</svg>
